<svg width="800" height="194" viewBox="0 0 800 194" fill="none" xmlns="http://www.w3.org/2000/svg">
<rect width="174.579" height="174.579" rx="41.8989" fill="#28D28E"/>
<mask id="mask0_1152_37773" style="mask-type:alpha" maskUnits="userSpaceOnUse" x="0" y="0" width="175" height="175">
<rect width="174.579" height="174.579" rx="41.8989" fill="#2A2626"/>
</mask>
<g mask="url(#mask0_1152_37773)">
<path d="M53.4568 68.6317L31.3716 59.1666H144.953L122.868 68.6317L123.919 90.7169L53.4568 91.7686V68.6317Z" fill="#6B7280"/>
<path d="M26.1136 77.0453H150.212L158.625 215.867H17.7002L26.1136 77.0453Z" fill="#F3F4F6"/>
<path d="M119.587 147.519C123.926 147.519 127.522 151.071 126.66 155.323C126.159 157.792 125.421 160.213 124.453 162.551C122.479 167.317 119.585 171.647 115.938 175.295C112.29 178.942 107.96 181.835 103.194 183.809C98.4288 185.784 93.3209 186.8 88.1626 186.8C83.0042 186.8 77.8964 185.784 73.1307 183.809C68.365 181.835 64.0347 178.942 60.3872 175.295C56.7397 171.647 53.8464 167.317 51.8724 162.551C50.9037 160.213 50.1658 157.792 49.6653 155.323C48.8033 151.071 52.3996 147.519 56.7384 147.519C61.0771 147.519 64.4721 151.131 65.8917 155.231C66.0441 155.671 66.2097 156.107 66.3884 156.538C67.5729 159.398 69.3089 161.996 71.4974 164.184C73.6859 166.373 76.284 168.109 79.1434 169.293C82.0029 170.478 85.0676 171.087 88.1626 171.087C91.2576 171.087 94.3223 170.478 97.1817 169.293C100.041 168.109 102.639 166.373 104.828 164.184C107.016 161.996 108.752 159.398 109.937 156.538C110.115 156.107 110.281 155.671 110.433 155.231C111.853 151.131 115.248 147.519 119.587 147.519Z" fill="#28D28E"/>
</g>
<circle cx="51.3543" cy="112.802" r="8.41343" fill="#28D28E"/>
<circle cx="122.869" cy="112.802" r="8.41343" fill="#28D28E"/>
<path d="M122.969 77.0449V68.6315L142.478 74.6345L150.313 77.0449H122.969Z" fill="#374151"/>
<path d="M122.787 68.5659L145.004 58.8085L145.855 75.6378L122.787 68.5659Z" fill="#E5E7EB"/>
<path d="M53.4572 77.0449V68.6315L33.9481 74.6345L26.1135 77.0449H53.4572Z" fill="#374151"/>
<path d="M53.6392 68.5659L31.4218 58.8085L30.5715 75.6378L53.6392 68.5659Z" fill="#E5E7EB"/>
<path d="M200.56 153.016V30.8113H280.152V49.8403H224.123V82.4865H268.981V100.992H224.123V153.016H200.56Z" fill="white"/>
<path d="M293.533 153.016V27.3197H317.096V153.016H293.533Z" fill="white"/>
<path d="M337.099 153.016V65.0287H360.662V153.016H337.099Z" fill="white"/>
<path d="M372.778 153.016L404.37 109.022L372.778 65.0287H398.261L419.381 95.2308L440.501 65.0287H465.809L434.217 109.022L465.809 153.016H440.501L419.381 122.64L398.261 153.016H372.778Z" fill="white"/>
<path d="M477.729 153.016V30.8113H527.823C536.317 30.8113 543.473 32.1497 549.291 34.8266C555.11 37.5034 559.473 41.2278 562.382 45.9996C565.408 50.655 566.92 56.067 566.92 62.2354C566.92 68.4039 565.582 73.583 562.906 77.7729C560.229 81.9628 556.68 85.2216 552.259 87.5493C547.953 89.7606 543.182 91.0409 537.946 91.39L540.739 89.4697C546.324 89.7024 551.27 91.2155 555.575 94.0087C559.997 96.6856 563.429 100.294 565.873 104.833C568.433 109.372 569.713 114.318 569.713 119.672C569.713 126.189 568.142 131.95 565 136.955C561.859 141.96 557.32 145.917 551.386 148.826C545.452 151.62 538.179 153.016 529.568 153.016H477.729ZM501.292 133.813H525.728C532.128 133.813 537.073 132.358 540.564 129.448C544.055 126.539 545.801 122.349 545.801 116.879C545.801 111.408 543.997 107.16 540.39 104.134C536.783 100.992 531.779 99.4207 525.379 99.4207H501.292V133.813ZM501.292 81.7882H523.983C530.15 81.7882 534.804 80.3916 537.946 77.5983C541.204 74.8051 542.833 70.848 542.833 65.727C542.833 60.7224 541.204 56.8235 537.946 54.0302C534.804 51.1206 530.092 49.6658 523.808 49.6658H501.292V81.7882Z" fill="white"/>
<path d="M614.692 155.111C607.361 155.111 601.31 153.947 596.539 151.62C591.769 149.176 588.22 145.975 585.892 142.018C583.681 137.944 582.576 133.463 582.576 128.575C582.576 123.222 583.914 118.508 586.59 114.434C589.383 110.361 593.514 107.16 598.983 104.833C604.568 102.505 611.55 101.341 619.928 101.341H641.746C641.746 97.0348 641.164 93.485 640.001 90.6917C638.837 87.7821 637.033 85.6289 634.59 84.2323C632.146 82.8357 628.888 82.1374 624.815 82.1374C620.394 82.1374 616.612 83.1267 613.47 85.1052C610.445 86.9674 608.583 89.877 607.885 93.8341H585.02C585.601 87.5493 587.638 82.1374 591.129 77.5983C594.736 72.9429 599.448 69.3349 605.267 66.7745C611.201 64.214 617.775 62.9337 624.99 62.9337C633.252 62.9337 640.408 64.3304 646.459 67.1236C652.509 69.9169 657.164 73.9322 660.422 79.1695C663.68 84.4069 665.309 90.8663 665.309 98.5478V153.016H645.411L642.793 139.574C641.513 141.901 640.001 143.996 638.255 145.859C636.51 147.721 634.473 149.35 632.146 150.747C629.819 152.143 627.201 153.191 624.292 153.889C621.383 154.704 618.183 155.111 614.692 155.111ZM620.277 136.955C623.303 136.955 625.979 136.431 628.306 135.384C630.75 134.22 632.844 132.707 634.59 130.845C636.335 128.866 637.673 126.655 638.604 124.211C639.651 121.65 640.35 118.915 640.699 116.006V115.831H622.721C619.114 115.831 616.146 116.297 613.819 117.228C611.608 118.042 609.979 119.264 608.932 120.894C607.885 122.523 607.361 124.385 607.361 126.48C607.361 128.808 607.885 130.728 608.932 132.241C609.979 133.754 611.492 134.918 613.47 135.733C615.448 136.548 617.717 136.955 620.277 136.955Z" fill="white"/>
<path d="M721.676 193.519C713.298 193.519 705.967 192.471 699.683 190.376C693.4 188.398 688.513 185.313 685.022 181.123C681.647 177.05 679.96 171.987 679.96 165.935C679.96 161.862 681.007 158.021 683.102 154.413C685.196 150.805 688.222 147.546 692.178 144.637C696.251 141.61 701.312 139.05 707.363 136.955L716.265 148.477C710.912 150.223 707.014 152.376 704.571 154.937C702.243 157.614 701.08 160.465 701.08 163.491C701.08 166.168 701.952 168.437 703.698 170.3C705.56 172.162 708.003 173.5 711.029 174.315C714.17 175.246 717.661 175.712 721.501 175.712C725.225 175.712 728.425 175.246 731.101 174.315C733.894 173.384 736.046 171.987 737.559 170.125C739.188 168.379 740.003 166.284 740.003 163.84C740.003 160.698 738.897 158.137 736.686 156.159C734.476 154.18 730.054 152.958 723.421 152.493C717.487 152.027 712.192 151.387 707.538 150.572C703 149.641 698.985 148.594 695.494 147.43C692.003 146.15 689.036 144.753 686.593 143.24C684.265 141.727 682.345 140.214 680.833 138.701V134.686L699.509 114.609L716.44 120.021L694.447 141.669L701.08 130.146C702.36 130.845 703.582 131.543 704.745 132.241C706.025 132.823 707.596 133.405 709.458 133.987C711.32 134.453 713.763 134.918 716.789 135.384C719.814 135.849 723.654 136.257 728.308 136.606C735.988 137.304 742.272 138.759 747.159 140.97C752.163 143.182 755.828 146.15 758.155 149.874C760.482 153.482 761.646 157.963 761.646 163.316C761.646 168.554 760.192 173.442 757.283 177.981C754.49 182.636 750.126 186.361 744.192 189.154C738.257 192.064 730.752 193.519 721.676 193.519ZM721.676 127.004C714.345 127.004 708.003 125.607 702.651 122.814C697.414 119.905 693.342 116.064 690.433 111.292C687.64 106.404 686.244 100.992 686.244 95.0562C686.244 89.1205 687.64 83.7668 690.433 78.995C693.342 74.1068 697.414 70.2078 702.651 67.2982C708.003 64.3886 714.345 62.9337 721.676 62.9337C729.123 62.9337 735.465 64.3886 740.701 67.2982C746.054 70.2078 750.126 74.1068 752.919 78.995C755.712 83.7668 757.108 89.1205 757.108 95.0562C757.108 100.992 755.712 106.404 752.919 111.292C750.126 116.064 746.054 119.905 740.701 122.814C735.465 125.607 729.123 127.004 721.676 127.004ZM721.676 109.022C726.214 109.022 729.879 107.859 732.672 105.531C735.465 103.203 736.861 99.7698 736.861 95.2308C736.861 90.6917 735.465 87.2584 732.672 84.9306C729.879 82.4865 726.214 81.2645 721.676 81.2645C717.254 81.2645 713.589 82.4865 710.68 84.9306C707.887 87.2584 706.491 90.6917 706.491 95.2308C706.491 99.7698 707.887 103.203 710.68 105.531C713.589 107.859 717.254 109.022 721.676 109.022ZM736.337 81.7882L732.497 65.0287H768.628V78.995L736.337 81.7882Z" fill="white"/>
<rect x="337.241" y="37.655" width="23.2528" height="23.6267" fill="#28D28E"/>
<path d="M784.559 57.3149C781.507 57.3149 778.792 56.582 776.412 55.116C774.084 53.65 772.248 51.6202 770.903 49.0266C769.61 46.4329 768.963 43.501 768.963 40.2308C768.963 36.9041 769.61 33.9722 770.903 31.4349C772.248 28.8413 774.084 26.8115 776.412 25.3455C778.792 23.8232 781.507 23.062 784.559 23.062C787.56 23.062 790.224 23.8232 792.551 25.3455C794.879 26.8115 796.69 28.8413 797.983 31.4349C799.328 33.9722 800 36.9041 800 40.2308C800 43.501 799.328 46.4329 797.983 49.0266C796.69 51.6202 794.879 53.65 792.551 55.116C790.224 56.582 787.56 57.3149 784.559 57.3149ZM787.663 49.1957L782.852 40.8228H786.81L792.008 49.1957H787.663ZM784.559 54.2702C787.094 54.2702 789.267 53.6782 791.077 52.4942C792.939 51.2537 794.388 49.5904 795.422 47.5042C796.457 45.3617 796.974 42.9372 796.974 40.2308C796.974 37.468 796.457 35.0435 795.422 32.9573C794.388 30.8711 792.939 29.236 791.077 28.0519C789.267 26.8115 787.094 26.1913 784.559 26.1913C782.025 26.1913 779.8 26.8115 777.886 28.0519C776.024 29.236 774.576 30.8711 773.541 32.9573C772.507 35.0435 771.989 37.468 771.989 40.2308C771.989 42.9372 772.507 45.3617 773.541 47.5042C774.576 49.5904 776.024 51.2537 777.886 52.4942C779.8 53.6782 782.025 54.2702 784.559 54.2702ZM778.352 49.1957V31.0121H785.723C787.482 31.0121 788.853 31.5195 789.836 32.5344C790.87 33.4929 791.387 34.8461 791.387 36.594C791.387 38.2855 790.87 39.6387 789.836 40.6536C788.853 41.6122 787.482 42.0914 785.723 42.0914H781.999V49.1957H778.352ZM781.999 38.8776H785.413C786.085 38.8776 786.628 38.7084 787.042 38.3701C787.508 38.0318 787.741 37.468 787.741 36.6786C787.741 35.8892 787.508 35.3536 787.042 35.0717C786.628 34.7334 786.085 34.5642 785.413 34.5642H781.999V38.8776Z" fill="white"/>
</svg>
